<svg width="10" height="11" viewBox="0 0 10 11" fill="none" xmlns="http://www.w3.org/2000/svg">
    <path d="M4.16797 7.83317V0.999837C4.16797 0.763726 4.24783 0.565809 4.40755 0.406087C4.56727 0.246365 4.76519 0.166504 5.0013 0.166504C5.23741 0.166504 5.43533 0.246365 5.59505 0.406087C5.75477 0.565809 5.83464 0.763726 5.83464 0.999837V7.83317L8.2513 5.4165C8.40408 5.26373 8.59852 5.18734 8.83464 5.18734C9.07075 5.18734 9.26519 5.26373 9.41797 5.4165C9.57075 5.56928 9.64714 5.76373 9.64714 5.99984C9.64714 6.23595 9.57075 6.43039 9.41797 6.58317L5.58464 10.4165C5.41797 10.5832 5.22352 10.6665 5.0013 10.6665C4.77908 10.6665 4.58464 10.5832 4.41797 10.4165L0.584635 6.58317C0.431858 6.43039 0.355469 6.23595 0.355469 5.99984C0.355469 5.76373 0.431858 5.56928 0.584635 5.4165C0.737413 5.26373 0.931858 5.18734 1.16797 5.18734C1.40408 5.18734 1.59852 5.26373 1.7513 5.4165L4.16797 7.83317Z"
          fill="#2ED3B7"/>
</svg>
