<svg width="14" height="14" viewBox="0 0 14 14" fill="none" xmlns="http://www.w3.org/2000/svg">
<path d="M4.96005 7.95768L12.0017 0.916016C12.1684 0.749349 12.3663 0.666016 12.5955 0.666016C12.8246 0.666016 13.0226 0.749349 13.1892 0.916016C13.3559 1.08268 13.4392 1.2806 13.4392 1.50977C13.4392 1.73893 13.3559 1.93685 13.1892 2.10352L5.54339 9.74935C5.37672 9.91602 5.18227 9.99935 4.96005 9.99935C4.73783 9.99935 4.54339 9.91602 4.37672 9.74935L0.814219 6.18685C0.647552 6.02018 0.567691 5.82227 0.574635 5.5931C0.58158 5.36393 0.668385 5.16602 0.835052 4.99935C1.00172 4.83268 1.19964 4.74935 1.4288 4.74935C1.65797 4.74935 1.85589 4.83268 2.02255 4.99935L4.96005 7.95768ZM2.00172 13.666C1.76561 13.666 1.56769 13.5862 1.40797 13.4264C1.24825 13.2667 1.16839 13.0688 1.16839 12.8327C1.16839 12.5966 1.24825 12.3987 1.40797 12.2389C1.56769 12.0792 1.76561 11.9993 2.00172 11.9993H12.0017C12.2378 11.9993 12.4357 12.0792 12.5955 12.2389C12.7552 12.3987 12.8351 12.5966 12.8351 12.8327C12.8351 13.0688 12.7552 13.2667 12.5955 13.4264C12.4357 13.5862 12.2378 13.666 12.0017 13.666H2.00172Z" fill="white"/>
</svg>
