<svg width="13" height="15" viewBox="0 0 13 15" fill="none" xmlns="http://www.w3.org/2000/svg">
<path d="M1.5013 13.4118H9.5013V6.74512H1.5013V13.4118ZM5.5013 11.4118C5.86797 11.4118 6.18186 11.2812 6.44297 11.0201C6.70408 10.759 6.83464 10.4451 6.83464 10.0785C6.83464 9.71178 6.70408 9.3979 6.44297 9.13678C6.18186 8.87567 5.86797 8.74512 5.5013 8.74512C5.13464 8.74512 4.82075 8.87567 4.55964 9.13678C4.29852 9.3979 4.16797 9.71178 4.16797 10.0785C4.16797 10.4451 4.29852 10.759 4.55964 11.0201C4.82075 11.2812 5.13464 11.4118 5.5013 11.4118ZM1.5013 14.7451C1.13464 14.7451 0.820747 14.6146 0.559635 14.3535C0.298524 14.0923 0.167969 13.7785 0.167969 13.4118V6.74512C0.167969 6.37845 0.298524 6.06456 0.559635 5.80345C0.820747 5.54234 1.13464 5.41178 1.5013 5.41178H6.16797V4.07845C6.16797 3.15623 6.49297 2.37012 7.14297 1.72012C7.79297 1.07012 8.57908 0.745117 9.5013 0.745117C10.2902 0.745117 10.9791 0.984006 11.568 1.46178C12.1569 1.93956 12.5457 2.53956 12.7346 3.26178C12.7902 3.45067 12.7541 3.63401 12.6263 3.81178C12.4985 3.98956 12.3457 4.07845 12.168 4.07845C11.9791 4.07845 11.8235 4.03956 11.7013 3.96178C11.5791 3.88401 11.4902 3.75623 11.4346 3.57845C11.3124 3.15623 11.0763 2.80067 10.7263 2.51178C10.3763 2.2229 9.96797 2.07845 9.5013 2.07845C8.94575 2.07845 8.47353 2.27289 8.08464 2.66178C7.69575 3.05067 7.5013 3.5229 7.5013 4.07845V5.41178H9.5013C9.86797 5.41178 10.1819 5.54234 10.443 5.80345C10.7041 6.06456 10.8346 6.37845 10.8346 6.74512V13.4118C10.8346 13.7785 10.7041 14.0923 10.443 14.3535C10.1819 14.6146 9.86797 14.7451 9.5013 14.7451H1.5013Z" fill="#0C111D"/>
</svg>
