<svg width="19" height="19" viewBox="0 0 19 19" fill="none" xmlns="http://www.w3.org/2000/svg">
<path d="M6.70833 16.2448H4.5C4.04167 16.2448 3.64931 16.0816 3.32292 15.7552C2.99653 15.4288 2.83333 15.0365 2.83333 14.5781V12.3698L1.22917 10.7448C1.07639 10.5781 0.958333 10.3941 0.875 10.1927C0.791667 9.99132 0.75 9.78646 0.75 9.57812C0.75 9.36979 0.791667 9.16493 0.875 8.96354C0.958333 8.76215 1.07639 8.57812 1.22917 8.41146L2.83333 6.78646V4.57812C2.83333 4.11979 2.99653 3.72743 3.32292 3.40104C3.64931 3.07465 4.04167 2.91146 4.5 2.91146H6.70833L8.33333 1.30729C8.5 1.15451 8.68403 1.03646 8.88542 0.953125C9.08681 0.869792 9.29167 0.828125 9.5 0.828125C9.70833 0.828125 9.91319 0.869792 10.1146 0.953125C10.316 1.03646 10.5 1.15451 10.6667 1.30729L12.2917 2.91146H14.5C14.9583 2.91146 15.3507 3.07465 15.6771 3.40104C16.0035 3.72743 16.1667 4.11979 16.1667 4.57812V6.78646L17.7708 8.41146C17.9236 8.57812 18.0417 8.76215 18.125 8.96354C18.2083 9.16493 18.25 9.36979 18.25 9.57812C18.25 9.78646 18.2083 9.99132 18.125 10.1927C18.0417 10.3941 17.9236 10.5781 17.7708 10.7448L16.1667 12.3698V14.5781C16.1667 15.0365 16.0035 15.4288 15.6771 15.7552C15.3507 16.0816 14.9583 16.2448 14.5 16.2448H12.2917L10.6667 17.849C10.5 18.0017 10.316 18.1198 10.1146 18.2031C9.91319 18.2865 9.70833 18.3281 9.5 18.3281C9.29167 18.3281 9.08681 18.2865 8.88542 18.2031C8.68403 18.1198 8.5 18.0017 8.33333 17.849L6.70833 16.2448ZM7.41667 14.5781L9.5 16.6615L11.5833 14.5781H14.5V11.6615L16.5833 9.57812L14.5 7.49479V4.57812H11.5833L9.5 2.49479L7.41667 4.57812H4.5V7.49479L2.41667 9.57812L4.5 11.6615V14.5781H7.41667ZM9.5 13.7448C10.6528 13.7448 11.6354 13.3385 12.4479 12.526C13.2604 11.7135 13.6667 10.7309 13.6667 9.57812C13.6667 8.42535 13.2604 7.44271 12.4479 6.63021C11.6354 5.81771 10.6528 5.41146 9.5 5.41146V13.7448Z" fill="#61646C"/>
</svg>
