<svg width="20" height="20" viewBox="0 0 20 20" fill="none" xmlns="http://www.w3.org/2000/svg">
<mask id="mask0_2275_2200" style="mask-type:alpha" maskUnits="userSpaceOnUse" x="0" y="0" width="20" height="20">
<rect width="20" height="20" fill="#D9D9D9"/>
</mask>
<g mask="url(#mask0_2275_2200)">
<path d="M9.16537 10.1243V5.08268C8.10981 5.27713 7.29037 5.78754 6.70703 6.61393C6.1237 7.44032 5.83203 8.29102 5.83203 9.16602H5.41536C4.60981 9.16602 3.92231 9.45074 3.35286 10.0202C2.78342 10.5896 2.4987 11.2771 2.4987 12.0827C2.4987 12.8882 2.78342 13.5757 3.35286 14.1452C3.92231 14.7146 4.60981 14.9993 5.41536 14.9993H15.4154C15.9987 14.9993 16.4918 14.798 16.8945 14.3952C17.2973 13.9924 17.4987 13.4993 17.4987 12.916C17.4987 12.3327 17.2973 11.8396 16.8945 11.4368C16.4918 11.0341 15.9987 10.8327 15.4154 10.8327H14.1654V9.16602C14.1654 8.49935 14.0126 7.87782 13.707 7.30143C13.4015 6.72504 12.9987 6.23546 12.4987 5.83268V3.89518C13.5265 4.38129 14.339 5.10004 14.9362 6.05143C15.5334 7.00282 15.832 8.04102 15.832 9.16602C16.7904 9.27713 17.5855 9.69032 18.2174 10.4056C18.8494 11.1209 19.1654 11.9577 19.1654 12.916C19.1654 13.9577 18.8008 14.8431 18.0716 15.5723C17.3424 16.3014 16.457 16.666 15.4154 16.666H5.41536C4.15148 16.666 3.07161 16.2285 2.17578 15.3535C1.27995 14.4785 0.832031 13.4091 0.832031 12.1452C0.832031 11.0618 1.15842 10.0966 1.8112 9.24935C2.46398 8.40213 3.31814 7.86046 4.3737 7.62435C4.60981 6.62435 5.20009 5.67296 6.14453 4.77018C7.08898 3.8674 8.09592 3.41602 9.16537 3.41602C9.6237 3.41602 10.0161 3.57921 10.3424 3.9056C10.6688 4.23199 10.832 4.62435 10.832 5.08268V10.1243L11.582 9.39518C11.7348 9.2424 11.9258 9.16602 12.1549 9.16602C12.3841 9.16602 12.582 9.24935 12.7487 9.41602C12.9015 9.56879 12.9779 9.76324 12.9779 9.99935C12.9779 10.2355 12.9015 10.4299 12.7487 10.5827L10.582 12.7493C10.4154 12.916 10.2209 12.9993 9.9987 12.9993C9.77648 12.9993 9.58203 12.916 9.41537 12.7493L7.2487 10.5827C7.09592 10.4299 7.01606 10.2389 7.00911 10.0098C7.00217 9.7806 7.08203 9.58268 7.2487 9.41602C7.40148 9.26324 7.59245 9.18338 7.82161 9.17643C8.05078 9.16949 8.2487 9.2424 8.41537 9.39518L9.16537 10.1243Z" fill="white"/>
</g>
</svg>
