<svg width="18" height="17" viewBox="0 0 18 17" fill="none" xmlns="http://www.w3.org/2000/svg">
<path d="M8.99935 16.4113C7.84657 16.4113 6.76324 16.1926 5.74935 15.7551C4.73546 15.3176 3.85352 14.7238 3.10352 13.9738C2.35352 13.2238 1.75977 12.3419 1.32227 11.328C0.884766 10.3141 0.666016 9.23075 0.666016 8.07797C0.666016 6.27242 1.18685 4.64742 2.22852 3.20297C3.27018 1.75853 4.65213 0.751585 6.37435 0.182141C6.77713 0.0432521 7.14865 0.0918632 7.48893 0.327974C7.82921 0.564085 7.99935 0.88353 7.99935 1.28631C7.99935 1.56409 7.91949 1.81756 7.75977 2.04672C7.60004 2.27589 7.39518 2.43214 7.14518 2.51547C5.95074 2.89047 4.98893 3.58839 4.25977 4.60922C3.5306 5.63006 3.16602 6.78631 3.16602 8.07797C3.16602 9.70298 3.73199 11.0814 4.86393 12.2134C5.99588 13.3453 7.37435 13.9113 8.99935 13.9113C9.72157 13.9113 10.4195 13.7863 11.0931 13.5363C11.7667 13.2863 12.3674 12.9252 12.8952 12.453C13.1035 12.2585 13.357 12.1613 13.6556 12.1613C13.9542 12.1613 14.2077 12.2585 14.416 12.453C14.7355 12.7446 14.9021 13.0745 14.916 13.4426C14.9299 13.8106 14.7771 14.1335 14.4577 14.4113C13.7077 15.0641 12.8709 15.5606 11.9473 15.9009C11.0237 16.2412 10.041 16.4113 8.99935 16.4113ZM14.8327 8.07797C14.8327 6.8002 14.4646 5.65089 13.7285 4.63006C12.9924 3.60922 12.0271 2.90436 10.8327 2.51547C10.5827 2.43214 10.3778 2.27589 10.2181 2.04672C10.0584 1.81756 9.97852 1.56409 9.97852 1.28631C9.97852 0.88353 10.1487 0.564085 10.4889 0.327974C10.8292 0.0918632 11.2007 0.0432521 11.6035 0.182141C13.3396 0.765474 14.7285 1.77936 15.7702 3.22381C16.8118 4.66825 17.3327 6.28631 17.3327 8.07797C17.3327 8.32797 17.3223 8.58145 17.3014 8.83839C17.2806 9.09534 17.2424 9.37659 17.1868 9.68214C17.1174 10.0849 16.9125 10.3731 16.5723 10.5467C16.232 10.7203 15.8605 10.7308 15.4577 10.578C15.1938 10.4808 14.9889 10.3037 14.8431 10.0467C14.6973 9.78978 14.6521 9.52242 14.7077 9.24464C14.7493 9.00853 14.7806 8.8002 14.8014 8.61964C14.8223 8.43909 14.8327 8.25853 14.8327 8.07797Z" fill="#475467"/>
</svg>
