<svg width="16" height="17" viewBox="0 0 16 17" fill="none" xmlns="http://www.w3.org/2000/svg">
<path d="M7.16536 8.91113H2.89453L3.8112 9.80697C3.97786 9.97363 4.0612 10.175 4.0612 10.4111C4.0612 10.6472 3.97786 10.8486 3.8112 11.0153C3.64453 11.182 3.44314 11.2653 3.20703 11.2653C2.97092 11.2653 2.76953 11.182 2.60286 11.0153L0.248698 8.66113C0.165365 8.5778 0.106337 8.48752 0.0716146 8.3903C0.0368924 8.29308 0.0195312 8.18891 0.0195312 8.0778C0.0195312 7.96669 0.0368924 7.86252 0.0716146 7.7653C0.106337 7.66808 0.165365 7.5778 0.248698 7.49447L2.60286 5.1403C2.76953 4.97363 2.96745 4.8903 3.19661 4.8903C3.42578 4.8903 3.6237 4.97363 3.79036 5.1403C3.95703 5.30697 4.04036 5.50488 4.04036 5.73405C4.04036 5.96322 3.95703 6.16113 3.79036 6.3278L2.8737 7.24447H7.16536V2.9528L6.22786 3.8903C6.0612 4.05697 5.86675 4.13683 5.64453 4.12988C5.42231 4.12294 5.22786 4.03613 5.0612 3.86947C4.89453 3.7028 4.8112 3.50488 4.8112 3.27572C4.8112 3.04655 4.89453 2.84863 5.0612 2.68197L7.41536 0.327799C7.4987 0.244466 7.58898 0.185438 7.6862 0.150716C7.78342 0.115994 7.88759 0.0986328 7.9987 0.0986328C8.10981 0.0986328 8.21397 0.115994 8.3112 0.150716C8.40842 0.185438 8.4987 0.244466 8.58203 0.327799L10.957 2.7028C11.1237 2.86947 11.207 3.06391 11.207 3.28613C11.207 3.50835 11.1237 3.7028 10.957 3.86947C10.7904 4.03613 10.5924 4.11947 10.3633 4.11947C10.1341 4.11947 9.9362 4.03613 9.76953 3.86947L8.83203 2.9528V7.24447H13.1029L12.1862 6.34863C12.0195 6.18197 11.9362 5.98058 11.9362 5.74447C11.9362 5.50836 12.0195 5.30697 12.1862 5.1403C12.3529 4.97363 12.5543 4.8903 12.7904 4.8903C13.0265 4.8903 13.2279 4.97363 13.3945 5.1403L15.7487 7.49447C15.832 7.5778 15.8911 7.66808 15.9258 7.7653C15.9605 7.86252 15.9779 7.96669 15.9779 8.0778C15.9779 8.18891 15.9605 8.29308 15.9258 8.3903C15.8911 8.48752 15.832 8.5778 15.7487 8.66113L13.3737 11.0361C13.207 11.2028 13.0126 11.2827 12.7904 11.2757C12.5681 11.2688 12.3737 11.182 12.207 11.0153C12.0404 10.8486 11.957 10.6507 11.957 10.4215C11.957 10.1924 12.0404 9.99447 12.207 9.8278L13.1237 8.91113H8.83203V13.182L9.72787 12.2653C9.89453 12.0986 10.0959 12.0153 10.332 12.0153C10.5681 12.0153 10.7695 12.0986 10.9362 12.2653C11.1029 12.432 11.1862 12.6334 11.1862 12.8695C11.1862 13.1056 11.1029 13.307 10.9362 13.4736L8.58203 15.8278C8.4987 15.9111 8.40842 15.9702 8.3112 16.0049C8.21397 16.0396 8.10981 16.057 7.9987 16.057C7.88759 16.057 7.78342 16.0396 7.6862 16.0049C7.58898 15.9702 7.4987 15.9111 7.41536 15.8278L5.04036 13.4528C4.8737 13.2861 4.79384 13.0882 4.80078 12.859C4.80773 12.6299 4.89453 12.432 5.0612 12.2653C5.22786 12.0986 5.42578 12.0153 5.65495 12.0153C5.88411 12.0153 6.08203 12.0986 6.2487 12.2653L7.16536 13.2028V8.91113Z" fill="#61646C"/>
</svg>
