<svg width="18" height="18" viewBox="0 0 18 18" fill="none" xmlns="http://www.w3.org/2000/svg">
<path d="M8.95963 14.078C9.2513 14.078 9.49783 13.9773 9.69922 13.7759C9.90061 13.5745 10.0013 13.328 10.0013 13.0363C10.0013 12.7446 9.90061 12.4981 9.69922 12.2967C9.49783 12.0953 9.2513 11.9946 8.95963 11.9946C8.66797 11.9946 8.42144 12.0953 8.22005 12.2967C8.01866 12.4981 7.91797 12.7446 7.91797 13.0363C7.91797 13.328 8.01866 13.5745 8.22005 13.7759C8.42144 13.9773 8.66797 14.078 8.95963 14.078ZM9.0013 17.4113C7.84852 17.4113 6.76519 17.1925 5.7513 16.755C4.73741 16.3175 3.85547 15.7238 3.10547 14.9738C2.35547 14.2238 1.76172 13.3419 1.32422 12.328C0.886719 11.3141 0.667969 10.2307 0.667969 9.07796C0.667969 7.92518 0.886719 6.84185 1.32422 5.82796C1.76172 4.81407 2.35547 3.93213 3.10547 3.18213C3.85547 2.43213 4.73741 1.83838 5.7513 1.40088C6.76519 0.963379 7.84852 0.744629 9.0013 0.744629C10.1541 0.744629 11.2374 0.963379 12.2513 1.40088C13.2652 1.83838 14.1471 2.43213 14.8971 3.18213C15.6471 3.93213 16.2409 4.81407 16.6784 5.82796C17.1159 6.84185 17.3346 7.92518 17.3346 9.07796C17.3346 10.2307 17.1159 11.3141 16.6784 12.328C16.2409 13.3419 15.6471 14.2238 14.8971 14.9738C14.1471 15.7238 13.2652 16.3175 12.2513 16.755C11.2374 17.1925 10.1541 17.4113 9.0013 17.4113ZM9.0013 15.7446C10.8624 15.7446 12.4388 15.0988 13.7305 13.8071C15.0221 12.5155 15.668 10.9391 15.668 9.07796C15.668 7.21685 15.0221 5.64046 13.7305 4.3488C12.4388 3.05713 10.8624 2.4113 9.0013 2.4113C7.14019 2.4113 5.5638 3.05713 4.27214 4.3488C2.98047 5.64046 2.33464 7.21685 2.33464 9.07796C2.33464 10.9391 2.98047 12.5155 4.27214 13.8071C5.5638 15.0988 7.14019 15.7446 9.0013 15.7446ZM9.08464 5.49463C9.43186 5.49463 9.73394 5.60574 9.99088 5.82796C10.2478 6.05018 10.3763 6.32796 10.3763 6.6613C10.3763 6.96685 10.2826 7.23768 10.0951 7.4738C9.90755 7.70991 9.69575 7.93213 9.45964 8.14046C9.14019 8.41824 8.85894 8.7238 8.61589 9.05713C8.37283 9.39046 8.2513 9.76546 8.2513 10.1821C8.2513 10.3766 8.32422 10.5398 8.47005 10.6717C8.61589 10.8037 8.78602 10.8696 8.98047 10.8696C9.1888 10.8696 9.36589 10.8002 9.51172 10.6613C9.65755 10.5224 9.7513 10.3488 9.79297 10.1405C9.84852 9.8488 9.97352 9.58838 10.168 9.35921C10.3624 9.13005 10.5707 8.9113 10.793 8.70296C11.1124 8.39741 11.3867 8.06407 11.6159 7.70296C11.8451 7.34185 11.9596 6.93907 11.9596 6.49463C11.9596 5.7863 11.6714 5.20643 11.0951 4.75505C10.5187 4.30366 9.84852 4.07796 9.08464 4.07796C8.55686 4.07796 8.05339 4.18907 7.57422 4.4113C7.09505 4.63352 6.73047 4.9738 6.48047 5.43213C6.38325 5.5988 6.352 5.77588 6.38672 5.96338C6.42144 6.15088 6.51519 6.29324 6.66797 6.39046C6.86241 6.50157 7.0638 6.5363 7.27214 6.49463C7.48047 6.45296 7.65408 6.33491 7.79297 6.14046C7.94575 5.93213 8.13672 5.77241 8.36589 5.6613C8.59505 5.55018 8.83464 5.49463 9.08464 5.49463Z" fill="white"/>
</svg>
