<svg width="18" height="18" viewBox="0 0 18 18" fill="none" xmlns="http://www.w3.org/2000/svg">
<path d="M8.99935 13.2446C9.23546 13.2446 9.43338 13.1648 9.5931 13.005C9.75282 12.8453 9.83268 12.6474 9.83268 12.4113V9.07796C9.83268 8.84185 9.75282 8.64393 9.5931 8.48421C9.43338 8.32449 9.23546 8.24463 8.99935 8.24463C8.76324 8.24463 8.56532 8.32449 8.4056 8.48421C8.24588 8.64393 8.16602 8.84185 8.16602 9.07796V12.4113C8.16602 12.6474 8.24588 12.8453 8.4056 13.005C8.56532 13.1648 8.76324 13.2446 8.99935 13.2446ZM8.99935 6.57796C9.23546 6.57796 9.43338 6.4981 9.5931 6.33838C9.75282 6.17866 9.83268 5.98074 9.83268 5.74463C9.83268 5.50852 9.75282 5.3106 9.5931 5.15088C9.43338 4.99116 9.23546 4.9113 8.99935 4.9113C8.76324 4.9113 8.56532 4.99116 8.4056 5.15088C8.24588 5.3106 8.16602 5.50852 8.16602 5.74463C8.16602 5.98074 8.24588 6.17866 8.4056 6.33838C8.56532 6.4981 8.76324 6.57796 8.99935 6.57796ZM8.99935 17.4113C7.84657 17.4113 6.76324 17.1925 5.74935 16.755C4.73546 16.3175 3.85352 15.7238 3.10352 14.9738C2.35352 14.2238 1.75977 13.3419 1.32227 12.328C0.884766 11.3141 0.666016 10.2307 0.666016 9.07796C0.666016 7.92518 0.884766 6.84185 1.32227 5.82796C1.75977 4.81407 2.35352 3.93213 3.10352 3.18213C3.85352 2.43213 4.73546 1.83838 5.74935 1.40088C6.76324 0.963379 7.84657 0.744629 8.99935 0.744629C10.1521 0.744629 11.2355 0.963379 12.2493 1.40088C13.2632 1.83838 14.1452 2.43213 14.8952 3.18213C15.6452 3.93213 16.2389 4.81407 16.6764 5.82796C17.1139 6.84185 17.3327 7.92518 17.3327 9.07796C17.3327 10.2307 17.1139 11.3141 16.6764 12.328C16.2389 13.3419 15.6452 14.2238 14.8952 14.9738C14.1452 15.7238 13.2632 16.3175 12.2493 16.755C11.2355 17.1925 10.1521 17.4113 8.99935 17.4113ZM8.99935 15.7446C10.8605 15.7446 12.4368 15.0988 13.7285 13.8071C15.0202 12.5155 15.666 10.9391 15.666 9.07796C15.666 7.21685 15.0202 5.64046 13.7285 4.3488C12.4368 3.05713 10.8605 2.4113 8.99935 2.4113C7.13824 2.4113 5.56185 3.05713 4.27018 4.3488C2.97852 5.64046 2.33268 7.21685 2.33268 9.07796C2.33268 10.9391 2.97852 12.5155 4.27018 13.8071C5.56185 15.0988 7.13824 15.7446 8.99935 15.7446Z" fill="#61646C"/>
</svg>
