<svg width="14" height="16" viewBox="0 0 14 16" fill="none" xmlns="http://www.w3.org/2000/svg">
<path d="M0.354482 10.4535C0.13226 10.2868 0.0246212 10.068 0.0315657 9.7972C0.0385101 9.52637 0.153093 9.30762 0.375316 9.14095C0.528093 9.02984 0.69476 8.97428 0.875316 8.97428C1.05587 8.97428 1.22254 9.02984 1.37532 9.14095L7.00032 13.4951L12.6253 9.14095C12.7781 9.02984 12.9448 8.97428 13.1253 8.97428C13.3059 8.97428 13.4725 9.02984 13.6253 9.14095C13.8475 9.30762 13.9621 9.52637 13.9691 9.7972C13.976 10.068 13.8684 10.2868 13.6461 10.4535L8.02115 14.8285C7.71559 15.0646 7.37532 15.1826 7.00032 15.1826C6.62532 15.1826 6.28504 15.0646 5.97948 14.8285L0.354482 10.4535ZM5.97948 10.6201L1.18782 6.89095C0.75726 6.55762 0.541982 6.12012 0.541982 5.57845C0.541982 5.03678 0.75726 4.59928 1.18782 4.26595L5.97948 0.536784C6.28504 0.300673 6.62532 0.182617 7.00032 0.182617C7.37532 0.182617 7.71559 0.300673 8.02115 0.536784L12.8128 4.26595C13.2434 4.59928 13.4586 5.03678 13.4586 5.57845C13.4586 6.12012 13.2434 6.55762 12.8128 6.89095L8.02115 10.6201C7.71559 10.8562 7.37532 10.9743 7.00032 10.9743C6.62532 10.9743 6.28504 10.8562 5.97948 10.6201ZM7.00032 9.28678L11.792 5.57845L7.00032 1.87012L2.20865 5.57845L7.00032 9.28678Z" fill="#475467"/>
</svg>
