<svg width="18" height="19" viewBox="0 0 18 19" fill="none" xmlns="http://www.w3.org/2000/svg">
<path d="M6.20833 16.2448H4C3.54167 16.2448 3.14931 16.0816 2.82292 15.7552C2.49653 15.4288 2.33333 15.0365 2.33333 14.5781V12.3698L0.729167 10.7448C0.576389 10.5781 0.458333 10.3941 0.375 10.1927C0.291667 9.99132 0.25 9.78646 0.25 9.57812C0.25 9.36979 0.291667 9.16493 0.375 8.96354C0.458333 8.76215 0.576389 8.57812 0.729167 8.41146L2.33333 6.78646V4.57812C2.33333 4.11979 2.49653 3.72743 2.82292 3.40104C3.14931 3.07465 3.54167 2.91146 4 2.91146H6.20833L7.83333 1.30729C8 1.15451 8.18403 1.03646 8.38542 0.953125C8.58681 0.869792 8.79167 0.828125 9 0.828125C9.20833 0.828125 9.41319 0.869792 9.61458 0.953125C9.81597 1.03646 10 1.15451 10.1667 1.30729L11.7917 2.91146H14C14.4583 2.91146 14.8507 3.07465 15.1771 3.40104C15.5035 3.72743 15.6667 4.11979 15.6667 4.57812V6.78646L17.2708 8.41146C17.4236 8.57812 17.5417 8.76215 17.625 8.96354C17.7083 9.16493 17.75 9.36979 17.75 9.57812C17.75 9.78646 17.7083 9.99132 17.625 10.1927C17.5417 10.3941 17.4236 10.5781 17.2708 10.7448L15.6667 12.3698V14.5781C15.6667 15.0365 15.5035 15.4288 15.1771 15.7552C14.8507 16.0816 14.4583 16.2448 14 16.2448H11.7917L10.1667 17.849C10 18.0017 9.81597 18.1198 9.61458 18.2031C9.41319 18.2865 9.20833 18.3281 9 18.3281C8.79167 18.3281 8.58681 18.2865 8.38542 18.2031C8.18403 18.1198 8 18.0017 7.83333 17.849L6.20833 16.2448ZM6.91667 14.5781L9 16.6615L11.0833 14.5781H14V11.6615L16.0833 9.57812L14 7.49479V4.57812H11.0833L9 2.49479L6.91667 4.57812H4V7.49479L1.91667 9.57812L4 11.6615V14.5781H6.91667Z" fill="#61646C"/>
</svg>
