<svg width="16" height="18" viewBox="0 0 16 18" fill="none" xmlns="http://www.w3.org/2000/svg">
<path d="M7.02057 17.4118C6.64557 17.4118 6.32266 17.2868 6.05182 17.0368C5.78099 16.7868 5.6178 16.4812 5.56224 16.1201L5.37474 14.7451C5.19418 14.6757 5.02405 14.5923 4.86432 14.4951C4.7046 14.3979 4.54835 14.2937 4.39557 14.1826L3.10391 14.7243C2.75668 14.8771 2.40946 14.891 2.06224 14.766C1.71502 14.641 1.44418 14.4187 1.24974 14.0993L0.270573 12.391C0.0761285 12.0715 0.0205729 11.7312 0.103906 11.3701C0.18724 11.009 0.37474 10.7104 0.666406 10.4743L1.77057 9.64095C1.75668 9.54373 1.74974 9.44998 1.74974 9.3597V8.7972C1.74974 8.70692 1.75668 8.61317 1.77057 8.51595L0.666406 7.68262C0.37474 7.44651 0.18724 7.14789 0.103906 6.78678C0.0205729 6.42567 0.0761285 6.08539 0.270573 5.76595L1.24974 4.05762C1.44418 3.73817 1.71502 3.51595 2.06224 3.39095C2.40946 3.26595 2.75668 3.27984 3.10391 3.43262L4.39557 3.97428C4.54835 3.86317 4.70807 3.75901 4.87474 3.66178C5.04141 3.56456 5.20807 3.48123 5.37474 3.41178L5.56224 2.03678C5.6178 1.67567 5.78099 1.37012 6.05182 1.12012C6.32266 0.870117 6.64557 0.745117 7.02057 0.745117H8.97891C9.35391 0.745117 9.67682 0.870117 9.94766 1.12012C10.2185 1.37012 10.3817 1.67567 10.4372 2.03678L10.6247 3.41178C10.8053 3.48123 10.9754 3.56456 11.1352 3.66178C11.2949 3.75901 11.4511 3.86317 11.6039 3.97428L12.8956 3.43262C13.2428 3.27984 13.59 3.26595 13.9372 3.39095C14.2845 3.51595 14.5553 3.73817 14.7497 4.05762L15.7289 5.76595C15.9234 6.08539 15.9789 6.42567 15.8956 6.78678C15.8122 7.14789 15.6247 7.44651 15.3331 7.68262L14.2289 8.51595C14.2428 8.61317 14.2497 8.70692 14.2497 8.7972V9.3597C14.2497 9.44998 14.2359 9.54373 14.2081 9.64095L15.3122 10.4743C15.6039 10.7104 15.7914 11.009 15.8747 11.3701C15.9581 11.7312 15.9025 12.0715 15.7081 12.391L14.7081 14.0993C14.5136 14.4187 14.2428 14.641 13.8956 14.766C13.5484 14.891 13.2011 14.8771 12.8539 14.7243L11.6039 14.1826C11.4511 14.2937 11.2914 14.3979 11.1247 14.4951C10.9581 14.5923 10.7914 14.6757 10.6247 14.7451L10.4372 16.1201C10.3817 16.4812 10.2185 16.7868 9.94766 17.0368C9.67682 17.2868 9.35391 17.4118 8.97891 17.4118H7.02057ZM7.16641 15.7451H8.81224L9.10391 13.5368C9.53446 13.4257 9.93377 13.2625 10.3018 13.0472C10.6699 12.8319 11.0067 12.5715 11.3122 12.266L13.3747 13.1201L14.1872 11.7035L12.3956 10.3493C12.465 10.1548 12.5136 9.94998 12.5414 9.7347C12.5692 9.51942 12.5831 9.30067 12.5831 9.07845C12.5831 8.85623 12.5692 8.63748 12.5414 8.4222C12.5136 8.20692 12.465 8.00206 12.3956 7.80762L14.1872 6.45345L13.3747 5.03678L11.3122 5.91178C11.0067 5.59234 10.6699 5.32498 10.3018 5.1097C9.93377 4.89442 9.53446 4.73123 9.10391 4.62012L8.83307 2.41178H7.18724L6.89557 4.62012C6.46502 4.73123 6.06571 4.89442 5.69766 5.1097C5.3296 5.32498 4.9928 5.58539 4.68724 5.89095L2.62474 5.03678L1.81224 6.45345L3.60391 7.78678C3.53446 7.99512 3.48585 8.20345 3.45807 8.41178C3.4303 8.62012 3.41641 8.84234 3.41641 9.07845C3.41641 9.30067 3.4303 9.51595 3.45807 9.72428C3.48585 9.93262 3.53446 10.141 3.60391 10.3493L1.81224 11.7035L2.62474 13.1201L4.68724 12.2451C4.9928 12.5646 5.3296 12.8319 5.69766 13.0472C6.06571 13.2625 6.46502 13.4257 6.89557 13.5368L7.16641 15.7451ZM8.04141 11.9951C8.84696 11.9951 9.53446 11.7104 10.1039 11.141C10.6734 10.5715 10.9581 9.88401 10.9581 9.07845C10.9581 8.27289 10.6734 7.58539 10.1039 7.01595C9.53446 6.44651 8.84696 6.16178 8.04141 6.16178C7.22196 6.16178 6.53099 6.44651 5.96849 7.01595C5.40599 7.58539 5.12474 8.27289 5.12474 9.07845C5.12474 9.88401 5.40599 10.5715 5.96849 11.141C6.53099 11.7104 7.22196 11.9951 8.04141 11.9951Z" fill="white"/>
</svg>
